# xmcd
#
# Track frame offsets:
#	150
#	16317
#	28480
#	42942
#	52322
#	63867
#	75005
#	88405
#	101417
#	112992
#	123067
#	137517
#	148192
#	161632
#	203810
#	226462
#	246917
#	266350
#	287532
#	308625
#	331410
#
# Disc length: 4672 seconds
#
# Revision: 1
# Processed by: cddbd v1.5.2PL0 Copyright (c) Steve Scherf et al.
# Submitted via: audiograbber 1.83.01
#
DISCID=21123e15
DTITLE=Bee gees - Idea - Here at last vol.2
DYEAR=1900
DGENRE=
TTITLE0=Let there be love
TTITLE1=Kitty can
TTITLE2=In the summer of his years
TTITLE3=Indian gin and whisky dry
TTITLE4=Down to earth
TTITLE5=Such a shame
TTITLE6=I've gotta get a message to you
TTITLE7=Idea
TTITLE8=When the shallows fly
TTITLE9=I have decided to join the airforce
TTITLE10=Started a joke
TTITLE11=Kilburn towers
TTITLE12=Swan song
TTITLE13=You should be dancing
TTITLE14=Boogie child
TTITLE15=Down the road
TTITLE16=Words
TTITLE17=Wind of change
TTITLE18=Nights on broadway
TTITLE19=Jive talkin'
TTITLE20=Lonely days
EXTD=
EXTT0=
EXTT1=
EXTT2=
EXTT3=
EXTT4=
EXTT5=
EXTT6=
EXTT7=
EXTT8=
EXTT9=
EXTT10=
EXTT11=
EXTT12=
EXTT13=
EXTT14=
EXTT15=
EXTT16=
EXTT17=
EXTT18=
EXTT19=
EXTT20=
PLAYORDER=
